<?xml version="1.0" encoding="utf-8"?>
<!-- Generator: Adobe Illustrator 28.2.0, SVG Export Plug-In . SVG Version: 6.00 Build 0)  -->
<svg version="1.1" id="Layer_1" xmlns="http://www.w3.org/2000/svg" xmlns:xlink="http://www.w3.org/1999/xlink" x="0px" y="0px"
	 viewBox="0 0 249 265" style="enable-background:new 0 0 249 265;" xml:space="preserve">
<style type="text/css">
	.st0{fill:#00F2FE;stroke:#4FACFE;stroke-width:9;stroke-miterlimit:10;}
</style>
<g>
	<polygon class="st0" points="208.5,30.3 208.5,143.4 211.8,143.4 208.5,146.2 208.5,161.1 215.2,161.1 208.5,166.8 208.5,178.9 
		218.6,178.9 208.5,187.5 208.7,258.1 233,258.1 233,249.3 233,232.3 228.8,232.3 233,228.7 233,214.5 225.4,214.5 233,208.1 
		233,196.7 222,196.7 233,187.5 233,107.8 229.6,107.8 233,105 233,90 226.2,90 233,84.3 233,72.2 222.8,72.2 233,63.7 233,54.5 
		219.5,54.5 233,43.1 233,9.7 216.1,23.9 	"/>
	<polygon class="st0" points="194.9,221.6 194.9,249.7 182.8,235.6 175.3,226.9 175.3,211.4 161.9,211.4 151,198.9 141,187.3 
		126.7,170.8 126.7,163.1 120,163.1 102.5,142.8 102.5,138.9 99.1,138.9 57.3,90.6 54,86.7 36.4,66.4 29.7,58.7 29.7,42.2 
		15.5,42.2 11.6,37.8 11.6,9.7 18.8,18.1 29.7,30.6 39.7,42.2 54,58.7 54,66.4 60.6,66.4 78.2,86.7 78.2,90.6 81.6,90.6 
		123.4,138.9 126.7,142.8 144.3,163.1 151,170.8 151,187.3 165.2,187.3 175.3,198.9 186.2,211.4 	"/>
	<polygon class="st0" points="32.9,160.2 31,166.4 31,179.2 22.9,179.2 31,188.3 31,254.7 12.3,254.7 11.6,254 11.6,235.9 
		14.9,235.9 11.6,232.1 11.6,217 17.6,217 11.6,210.2 11.6,198.1 20.3,198.1 11.6,188.3 11.6,103.7 14.3,103.7 11.6,100.7 
		11.6,84.8 16.9,84.8 11.6,78.8 11.6,56.9 19.6,65.9 31,78.8 31,141.4 47.6,141.4 50.3,144.5 50.3,141.4 83.1,141.9 85.7,144.9 
		99.9,160.2 	"/>
</g>
<line class="st0" x1="194.9" y1="249.7" x2="194.9" y2="221.6"/>
</svg>
