<?xml version="1.0" encoding="UTF-8"?>
<svg id="Layer_1" data-name="Layer 1" xmlns="http://www.w3.org/2000/svg" viewBox="0 0 327 422.87">
  <defs>
    <style>
      .cls-1 {
        fill: none;
        stroke: #ed2024;
        stroke-miterlimit: 10;
        stroke-width: 3px;
      }
    </style>
  </defs>
  <polygon class="cls-1" points="293.89 41.95 293.89 224.37 298.25 224.37 293.89 229.55 293.89 256.72 302.61 256.72 293.89 267.07 293.89 289.06 306.97 289.06 293.89 304.59 293.89 418.44 324.41 418.44 325.5 417.14 325.5 386.09 320.05 386.09 325.5 379.62 325.5 353.75 315.69 353.75 325.5 342.1 325.5 321.4 311.33 321.4 325.5 304.59 325.5 159.69 321.14 159.69 325.5 154.51 325.5 127.34 316.78 127.34 325.5 116.99 325.5 95 312.42 95 325.5 79.47 325.5 62.65 308.06 62.65 325.5 41.95 325.5 4.44 303.7 30.31 293.89 41.95"/>
  <polygon class="cls-1" points="285.99 377.04 285.99 418.44 264.19 389.88 254.38 377.04 254.38 354.19 236.94 354.19 222.77 335.64 209.69 318.5 191.16 294.24 191.16 282.82 182.44 282.82 159.55 252.84 159.55 247.13 155.18 247.13 100.69 175.75 96.33 170.04 73.44 140.06 64.72 128.64 64.72 104.37 46.19 104.37 33.11 87.24 18.94 68.68 1.5 45.84 1.5 4.44 23.3 32.99 33.11 45.84 33.11 68.68 50.55 68.68 64.72 87.24 77.8 104.37 96.33 128.64 96.33 140.06 105.05 140.06 127.94 170.04 127.94 175.75 132.3 175.75 186.79 247.13 191.16 252.84 214.05 282.82 222.77 294.24 222.77 318.5 241.3 318.5 254.38 335.64 268.55 354.19 285.99 377.04"/>
  <polygon class="cls-1" points="28.5 238.44 33.11 257.68 33.11 281.04 20.03 281.04 33.11 297.52 33.11 418.44 2.59 418.44 1.5 417.07 1.5 384.09 6.95 384.09 1.5 377.22 1.5 349.74 11.31 349.74 1.5 337.37 1.5 315.39 15.67 315.39 1.5 297.52 1.5 143.63 5.86 143.63 1.5 138.13 1.5 109.28 10.22 109.28 1.5 98.29 1.5 58.44 14.58 74.93 33.11 98.29 33.11 212.33 60.36 212.33 64.72 217.83 64.72 212.33 118.25 213.09 122.61 218.59 136.5 238.44 28.5 238.44"/>
</svg>